<?xml version="1.0" encoding="UTF-8" standalone="no"?>
<svg
   xmlns:dc="http://purl.org/dc/elements/1.1/"
   xmlns:cc="http://creativecommons.org/ns#"
   xmlns:rdf="http://www.w3.org/1999/02/22-rdf-syntax-ns#"
   xmlns:svg="http://www.w3.org/2000/svg"
   xmlns="http://www.w3.org/2000/svg"
   xmlns:sodipodi="http://sodipodi.sourceforge.net/DTD/sodipodi-0.dtd"
   xmlns:inkscape="http://www.inkscape.org/namespaces/inkscape"
   width="744.094488189"
   height="1052.36220472"
   id="svg2"
   version="1.1"
   inkscape:version="0.91 r13725"
   sodipodi:docname="Grbl Logo.svg">
  <metadata
     id="metadata97">
    <rdf:RDF>
      <cc:Work
         rdf:about="">
        <dc:format>image/svg+xml</dc:format>
        <dc:type
           rdf:resource="http://purl.org/dc/dcmitype/StillImage" />
        <dc:title />
      </cc:Work>
    </rdf:RDF>
  </metadata>
  <sodipodi:namedview
     pagecolor="#ffffff"
     bordercolor="#666666"
     borderopacity="1"
     objecttolerance="10"
     gridtolerance="10"
     guidetolerance="10"
     inkscape:pageopacity="0"
     inkscape:pageshadow="2"
     inkscape:window-width="1000"
     inkscape:window-height="751"
     id="namedview95"
     showgrid="false"
     inkscape:zoom="0.89702957"
     inkscape:cx="393.978"
     inkscape:cy="560.38231"
     inkscape:window-x="0"
     inkscape:window-y="0"
     inkscape:window-maximized="0"
     inkscape:current-layer="g21" />
  <desc
     id="desc4">/Users/chamnit/Dropbox/documents/OHS/Logo/Grbl.DXF - scale = 58.043118, origin = (0.000000, 0.000000), auto = True</desc>
  <defs
     id="defs6">
    <marker
       id="DistanceX"
       orient="auto"
       refX="0.0"
       refY="0.0"
       style="overflow:visible">
      <path
         d="M 3,-3 L -3,3 M 0,-5 L  0,5"
         style="stroke:#000000; stroke-width:0.5"
         id="path9" />
    </marker>
    <pattern
       height="8"
       id="Hatch"
       patternUnits="userSpaceOnUse"
       width="8"
       x="0"
       y="0">
      <path
         d="M8 4 l-4,4"
         linecap="square"
         stroke="#000000"
         stroke-width="0.25"
         id="path12" />
      <path
         d="M6 2 l-4,4"
         linecap="square"
         stroke="#000000"
         stroke-width="0.25"
         id="path14" />
      <path
         d="M4 0 l-4,4"
         linecap="square"
         stroke="#000000"
         stroke-width="0.25"
         id="path16" />
    </pattern>
    <symbol
       id="*Model_Space" />
    <symbol
       id="*Paper_Space" />
    <symbol
       id="*Paper_Space0" />
  </defs>
  <g
     inkscape:groupmode="layer"
     inkscape:label="0"
     id="g21">
    <g
       id="g3562"
       transform="matrix(0.74854703,0,0,0.74854703,93.578346,130.5299)">
      <path
         sodipodi:nodetypes="ccscccccc"
         inkscape:connector-curvature="0"
         id="path45"
         style="fill:#000000;stroke:#000000;stroke-linecap:round"
         d="m 666.97027,519.20619 0,-204.22494 c 0,-14.19819 -11.5099,-25.70806 -25.70807,-25.70806 -14.19818,0 -25.70808,11.50987 -25.70808,25.70806 l 0,204.22494 c 0,56.79271 46.03958,102.83229 102.83229,102.8323 l 25.70808,-25.70808 -25.70808,-25.70807 c -28.39635,0 -51.41614,-23.0198 -51.41614,-51.41615 z" />
      <path
         sodipodi:nodetypes="ccsccccccc"
         inkscape:connector-curvature="0"
         id="path61"
         style="fill:#000000;stroke:#000000;stroke-linecap:round"
         d="m 230.65284,519.20619 0,77.12422 c 0,14.19819 11.5099,25.70806 25.70807,25.70806 14.19818,0 25.70808,-11.50987 25.70808,-25.70806 l 0,-77.12422 c 0,-28.39635 23.01979,-51.41615 51.41614,-51.41615 l 38.92203,0 0,-51.41614 -38.92203,0 c -56.7927,1e-5 -102.83228,46.03959 -102.83229,102.83229" />
      <path
         sodipodi:nodetypes="ccccssscccccsssc"
         inkscape:connector-curvature="0"
         id="path73"
         style="fill:#000000;stroke:#000000;stroke-linecap:round"
         d="m 487.73358,416.3739 -38.92203,0 0,51.41614 38.92203,0 c 20.79587,0 39.54419,12.52721 47.50197,31.73975 7.95777,19.21249 3.55772,41.32642 -11.14711,56.03126 -14.70484,14.70483 -36.81877,19.10488 -56.03126,11.14711 -19.21254,-7.95778 -31.73975,-26.7061 -31.73975,-47.50197 l 0,-204.22494 -25.70808,-25.70807 -25.70807,25.70807 0,204.22494 c 0,41.59174 25.05442,79.08838 63.47948,95.00395 38.42499,15.91554 82.65286,7.11546 112.06254,-22.29421 29.40967,-29.40968 38.20976,-73.63755 22.29423,-112.06254 -15.91557,-38.42506 -53.41221,-63.47949 -95.00395,-63.47949" />
      <path
         sodipodi:nodetypes="cssscccscccsssccccc"
         inkscape:connector-curvature="0"
         id="path81"
         style="fill:#000000;stroke:#000000;stroke-linecap:round"
         d="m 102.8323,570.62234 c -20.795869,0 -39.544189,-12.52721 -47.501976,-31.73974 -7.95777,-19.21249 -3.557731,-41.32643 11.147104,-56.03126 14.704835,-14.70484 36.818772,-19.10489 56.031262,-11.14712 19.21254,7.95778 31.73975,26.7061 31.73975,47.50197 l 0,127.10072 c 0,28.39635 -23.01979,51.41615 -51.41614,51.41615 -14.192584,0.008 -25.693722,11.51549 -25.693722,25.70807 0,14.19258 11.501138,25.70007 25.693722,25.70807 56.7927,-10e-6 102.83228,-46.03959 102.83229,-102.83229 l 0,-127.10072 c 0,-41.59174 -25.05443,-79.08838 -63.47949,-95.00395 C 103.76011,408.28671 59.532236,417.0868 30.122564,446.49647 0.712891,475.90615 -8.0871904,520.13402 7.8283485,558.55901 23.74392,596.98407 61.240561,622.03849 102.8323,622.03849 l 25.70807,0 25.70807,-25.70808 -25.70807,-25.70807 -25.70807,0" />
      <path
         inkscape:connector-curvature="0"
         id="path91"
         style="fill:none;stroke:#000000;stroke-linecap:round"
         d="m 744.09449,596.33041 -25.70808,25.70808" />
    </g>
  </g>
</svg>
